<svg width="57" height="57" viewBox="0 0 57 57" fill="none" xmlns="http://www.w3.org/2000/svg">
<g clip-path="url(#clip0_1_332)">
<rect width="57" height="57" rx="15" fill="#F1F3F9"/>
<path fill-rule="evenodd" clip-rule="evenodd" d="M0 28.5C0 15.065 0 8.34746 4.17373 4.17372C8.34746 0 15.065 0 28.5 0C41.935 0 48.6525 0 52.8263 4.17372C57 8.34746 57 15.065 57 28.5C57 41.935 57 48.6525 52.8263 52.8263C48.6525 57 41.935 57 28.5 57C15.065 57 8.34746 57 4.17373 52.8263C0 48.6525 0 41.935 0 28.5ZM45.245 24.8983C44.6438 23.3384 43.6446 22.0162 42.3859 21.0797C41.7566 20.6115 41.0613 20.2398 40.3188 19.9852C39.5764 19.7306 38.7866 19.5936 37.973 19.5938C36.8042 19.5926 35.7005 19.8655 34.6932 20.3201C33.8103 20.7177 32.9976 21.2499 32.2377 21.8591C30.9085 22.927 29.7322 24.2295 28.6089 25.562C28.588 25.5869 28.5674 25.6118 28.5467 25.6368L28.5465 25.637C28.5311 25.6556 28.5158 25.6741 28.5003 25.6926L28.4767 25.6641C27.847 24.9134 27.1998 24.1716 26.5199 23.4733C25.4998 22.427 24.4056 21.473 23.1678 20.7611C22.5493 20.4058 21.8944 20.1131 21.2022 19.9098C20.5103 19.7064 19.7814 19.5936 19.027 19.5939C17.942 19.5936 16.9001 19.8375 15.9551 20.2783C14.537 20.9396 13.3351 22.0387 12.4837 23.4232C12.058 24.1156 11.7201 24.8804 11.4887 25.6971C11.2572 26.5137 11.1327 27.3825 11.1328 28.2776C11.1326 29.471 11.3543 30.6171 11.755 31.6566C12.3562 33.2163 13.3555 34.5385 14.6141 35.475C15.2434 35.9432 15.9387 36.3149 16.6812 36.5695C17.4236 36.8241 18.2134 36.961 19.027 36.9609C20.1958 36.962 21.2995 36.6892 22.3068 36.2346C23.1897 35.837 24.0024 35.3048 24.7623 34.6956C26.0915 33.6277 27.2678 32.3251 28.3911 30.9927C28.4112 30.9688 28.431 30.9448 28.4509 30.9208C28.4671 30.9013 28.4834 30.8817 28.4997 30.8622L28.5233 30.8906C29.153 31.6414 29.8002 32.3832 30.4801 33.0815C31.5002 34.1278 32.5944 35.0818 33.8322 35.7937C34.4507 36.1488 35.1056 36.4417 35.7978 36.645C36.4897 36.8484 37.2186 36.9612 37.973 36.9609C39.058 36.9612 40.0999 36.7172 41.0449 36.2765C42.463 35.6152 43.6649 34.5161 44.5163 33.1315C44.942 32.4392 45.2799 31.6744 45.5113 30.8577C45.7428 30.0411 45.8673 29.1723 45.8672 28.2773C45.8674 27.0838 45.6457 25.9378 45.245 24.8983ZM26.1561 28.5355C25.5553 29.2519 24.9597 29.9325 24.3654 30.5426C23.4742 31.4591 22.5863 32.2111 21.707 32.7145C21.267 32.967 20.8296 33.1593 20.3877 33.2891C19.9455 33.4188 19.4984 33.4872 19.0271 33.4874C18.3709 33.4872 17.7528 33.3415 17.1871 33.0783C16.3392 32.6836 15.6115 32.0193 15.0996 31.186C14.8436 30.7695 14.6416 30.3118 14.5034 29.8243C14.3653 29.3365 14.2906 28.819 14.2906 28.2775C14.2908 27.5556 14.4233 26.8756 14.6626 26.2535C15.0214 25.3209 15.6253 24.5203 16.3829 23.9573C16.7615 23.6757 17.1777 23.4534 17.6211 23.3015C18.0645 23.1495 18.5349 23.0673 19.0272 23.0673C19.756 23.0684 20.4303 23.2298 21.1114 23.5351C21.7058 23.8022 22.3019 24.1842 22.9022 24.6658C23.9531 25.5068 25.0082 26.6537 26.0744 27.9222C26.1416 28.0019 26.209 28.0833 26.2764 28.1646L26.2796 28.1685C26.3098 28.2049 26.3399 28.2414 26.3701 28.2777C26.341 28.3126 26.3119 28.3478 26.2827 28.3832C26.2575 28.4136 26.2324 28.444 26.2073 28.4742C26.1902 28.4948 26.1732 28.5152 26.1561 28.5355ZM42.3377 30.3015C41.9789 31.2342 41.375 32.0347 40.6174 32.5977C40.2388 32.8794 39.8226 33.1016 39.3792 33.2535C38.9358 33.4055 38.4653 33.4876 37.973 33.4876C37.2443 33.4866 36.57 33.3252 35.8889 33.02C35.2945 32.7528 34.6984 32.3708 34.0981 31.8892C33.0471 31.0482 31.9921 29.9013 30.9258 28.6328C30.8608 28.5556 30.7955 28.4768 30.7302 28.3979L30.7285 28.3959L30.7114 28.3753C30.6843 28.3426 30.6573 28.3099 30.6302 28.2773C30.6465 28.2577 30.6628 28.238 30.6791 28.2183L30.7111 28.1796C30.7555 28.1258 30.7999 28.072 30.8442 28.0193C31.445 27.3029 32.0406 26.6223 32.6349 26.0122C33.5261 25.0957 34.414 24.3437 35.2933 23.8403C35.7333 23.5878 36.1706 23.3955 36.6125 23.2657C37.0548 23.136 37.5018 23.0676 37.9731 23.0673C38.6294 23.0676 39.2475 23.2133 39.8132 23.4765C40.6611 23.8712 41.3888 24.5355 41.9006 25.3689C42.1567 25.7854 42.3587 26.2431 42.4968 26.7307C42.635 27.2184 42.7097 27.7359 42.7097 28.2775C42.7096 28.9992 42.5771 29.6792 42.3377 30.3015Z" fill="#7138C7"/>
</g>
<defs>
<clipPath id="clip0_1_332">
<rect width="57" height="57" rx="15" fill="white"/>
</clipPath>
</defs>
</svg>
