<svg width="57" height="57" viewBox="0 0 57 57" fill="none" xmlns="http://www.w3.org/2000/svg">
<g clip-path="url(#clip0_1_329)">
<rect width="57" height="57" rx="15" fill="#F1F3F9"/>
<path fill-rule="evenodd" clip-rule="evenodd" d="M0 28.5C0 15.065 0 8.34746 4.17373 4.17373C8.34746 0 15.065 0 28.5 0C41.935 0 48.6525 0 52.8263 4.17373C57 8.34746 57 15.065 57 28.5C57 41.935 57 48.6525 52.8263 52.8263C48.6525 57 41.935 57 28.5 57C15.065 57 8.34746 57 4.17373 52.8263C0 48.6525 0 41.935 0 28.5ZM23.5692 19.628C23.5692 15.4281 27.1361 12.0234 31.5362 12.0234H36.5156V17.7269H32.8641C31.3974 17.7269 30.2084 18.8618 30.2084 20.2617V24.6977H36.1837L35.1878 30.4011H30.2084V44.9766H23.5692V30.4011H18.2578V24.6977H23.5692V19.628Z" fill="#3838C7"/>
</g>
<defs>
<clipPath id="clip0_1_329">
<rect width="57" height="57" rx="15" fill="white"/>
</clipPath>
</defs>
</svg>
