<svg width="57" height="57" viewBox="0 0 57 57" fill="none" xmlns="http://www.w3.org/2000/svg">
<g clip-path="url(#clip0_1_331)">
<rect width="57" height="57" rx="15" fill="#F1F3F9"/>
<path fill-rule="evenodd" clip-rule="evenodd" d="M0 28.5C0 15.065 0 8.34746 4.17373 4.17373C8.34746 0 15.065 0 28.5 0C41.935 0 48.6525 0 52.8263 4.17373C57 8.34746 57 15.065 57 28.5C57 41.935 57 48.6525 52.8263 52.8263C48.6525 57 41.935 57 28.5 57C15.065 57 8.34746 57 4.17373 52.8263C0 48.6525 0 41.935 0 28.5ZM42.75 17.8386L40.475 19.9851C40.3785 20.0574 40.3039 20.1543 40.2594 20.2653C40.2148 20.3763 40.202 20.4972 40.2222 20.6148V36.3869C40.2023 36.5043 40.2153 36.6248 40.2599 36.7355C40.3044 36.8461 40.3788 36.9427 40.475 37.0149L42.697 39.1614V39.6328H31.5218V39.1631L33.8233 36.9627C34.0496 36.74 34.0496 36.6757 34.0496 36.3365V23.5859L27.6506 39.5806H26.7845L19.332 23.5859V34.3065C19.3014 34.5288 19.3225 34.755 19.3939 34.9681C19.4652 35.1812 19.5849 35.3755 19.7439 35.5363L22.7383 39.1092V39.5806H14.25V39.111L17.2462 35.5363C17.4039 35.3754 17.5209 35.1802 17.5878 34.9666C17.6548 34.7529 17.6697 34.5268 17.6315 34.3065V21.9108C17.6492 21.741 17.6259 21.5695 17.5635 21.4102C17.5012 21.2509 17.4015 21.1083 17.2727 20.994L14.6106 17.8386V17.3689H22.8727L29.2592 31.151L34.8733 17.3672H42.75V17.8386Z" fill="#DB6124"/>
</g>
<defs>
<clipPath id="clip0_1_331">
<rect width="57" height="57" rx="15" fill="white"/>
</clipPath>
</defs>
</svg>
