<svg width="57" height="57" viewBox="0 0 57 57" fill="none" xmlns="http://www.w3.org/2000/svg">
<g clip-path="url(#clip0_1_328)">
<rect width="57" height="57" rx="15" fill="#F1F3F9"/>
<path fill-rule="evenodd" clip-rule="evenodd" d="M0 28.5C0 15.065 0 8.34746 4.17373 4.17373C8.34746 0 15.065 0 28.5 0C41.935 0 48.6525 0 52.8263 4.17373C57 8.34746 57 15.065 57 28.5C57 41.935 57 48.6525 52.8263 52.8263C48.6525 57 41.935 57 28.5 57C15.065 57 8.34746 57 4.17373 52.8263C0 48.6525 0 41.935 0 28.5ZM43.1953 20.1102L43.1812 20.1164L43.1911 20.1017L43.1953 20.1102ZM43.1812 20.1164C42.4004 21.2841 41.4133 22.3081 40.2743 23.1297C40.2871 23.3806 40.2913 23.6315 40.2913 23.8867C40.2913 31.6139 34.411 40.5234 23.6582 40.5234C20.3545 40.5234 17.2804 39.5538 14.6953 37.8952C15.1545 37.9463 15.618 37.976 16.0899 37.976C18.8323 37.976 21.3494 37.0404 23.352 35.4712C20.7967 35.4244 18.6368 33.7318 17.8927 31.4098C18.2498 31.4778 18.6155 31.5161 18.9939 31.5161C19.5254 31.5161 20.0441 31.4438 20.5331 31.312C17.8587 30.7761 15.8433 28.4116 15.8433 25.5793V25.507C16.6341 25.945 17.5355 26.2087 18.4922 26.2384C16.9233 25.1923 15.8901 23.4018 15.8901 21.3733C15.8901 20.3016 16.1792 19.2979 16.6809 18.4346C19.5637 21.9729 23.8708 24.3034 28.7306 24.5458C28.6285 24.1206 28.5775 23.674 28.5775 23.2147C28.5775 19.9869 31.1967 17.3672 34.4238 17.3672C36.1075 17.3672 37.6254 18.0774 38.6926 19.2129C40.0234 18.9492 41.2735 18.4644 42.4045 17.7925C41.9708 19.1576 41.0439 20.3058 39.8364 21.0288C41.0131 20.8891 42.1351 20.5766 43.1812 20.1164Z" fill="#196EE6"/>
</g>
<defs>
<clipPath id="clip0_1_328">
<rect width="57" height="57" rx="15" fill="white"/>
</clipPath>
</defs>
</svg>
