<svg width="57" height="57" viewBox="0 0 57 57" fill="none" xmlns="http://www.w3.org/2000/svg">
<g clip-path="url(#clip0_1_334)">
<rect width="57" height="57" rx="15" fill="#F1F3F9"/>
<path fill-rule="evenodd" clip-rule="evenodd" d="M0 28.5C0 15.065 0 8.34746 4.17373 4.17372C8.34746 0 15.065 0 28.5 0C41.935 0 48.6525 0 52.8263 4.17372C57 8.34746 57 15.065 57 28.5C57 41.935 57 48.6526 52.8263 52.8263C48.6525 57 41.935 57 28.5 57C15.065 57 8.34746 57 4.17373 52.8263C0 48.6526 0 41.935 0 28.5ZM14.0339 19.3776C12.4688 20.9428 12.4688 23.4619 12.4688 28.5C12.4688 33.5381 12.4688 36.0572 14.0339 37.6224C15.599 39.1875 18.1181 39.1875 23.1562 39.1875H33.8438C38.8819 39.1875 41.401 39.1875 42.9661 37.6224C44.5312 36.0572 44.5312 33.5381 44.5312 28.5C44.5312 23.4619 44.5312 20.9428 42.9661 19.3776C41.401 17.8125 38.8819 17.8125 33.8438 17.8125H23.1562C18.1181 17.8125 15.599 17.8125 14.0339 19.3776ZM24.9932 33.4171L33.5098 28.5L24.9932 23.5829V33.4171Z" fill="#D62929"/>
</g>
<defs>
<clipPath id="clip0_1_334">
<rect width="57" height="57" rx="15" fill="white"/>
</clipPath>
</defs>
</svg>
