<svg width="57" height="57" viewBox="0 0 57 57" fill="none" xmlns="http://www.w3.org/2000/svg">
<g clip-path="url(#clip0_1_333)">
<rect width="57" height="57" rx="15" fill="#F1F3F9"/>
<path fill-rule="evenodd" clip-rule="evenodd" d="M0 28.5C0 15.065 0 8.34746 4.17373 4.17372C8.34746 0 15.065 0 28.5 0C41.935 0 48.6525 0 52.8263 4.17372C57 8.34746 57 15.065 57 28.5C57 41.935 57 48.6525 52.8263 52.8263C48.6525 57 41.935 57 28.5 57C15.065 57 8.34746 57 4.17373 52.8263C0 48.6525 0 41.935 0 28.5ZM22.5734 19.7329H44.0859L34.4253 37.2671H12.9141L22.5734 19.7329Z" fill="#2FA77F"/>
</g>
<defs>
<clipPath id="clip0_1_333">
<rect width="57" height="57" rx="15" fill="white"/>
</clipPath>
</defs>
</svg>
