<svg width="57" height="57" viewBox="0 0 57 57" fill="none" xmlns="http://www.w3.org/2000/svg">
<g clip-path="url(#clip0_1_336)">
<rect width="57" height="57" rx="15" fill="#F1F3F9"/>
<path fill-rule="evenodd" clip-rule="evenodd" d="M0 28.5C0 15.065 0 8.34746 4.17373 4.17373C8.34746 0 15.065 0 28.5 0C41.935 0 48.6525 0 52.8263 4.17373C57 8.34746 57 15.065 57 28.5C57 41.935 57 48.6525 52.8263 52.8263C48.6525 57 41.935 57 28.5 57C15.065 57 8.34746 57 4.17373 52.8263C0 48.6525 0 41.935 0 28.5ZM28.5 12.4688C19.6603 12.4688 12.4688 19.6604 12.4688 28.5C12.4688 37.3397 19.6603 44.5312 28.5 44.5312C37.3397 44.5312 44.5312 37.3397 44.5312 28.5C44.5312 19.6604 37.3397 12.4688 28.5 12.4688ZM38.9469 20.0295C40.7466 22.2448 41.8547 25.0411 41.9468 28.0892C38.613 27.399 35.5942 27.48 32.9293 28.0025C32.4468 26.8741 31.9472 25.799 31.4431 24.783C34.3453 23.5327 36.8719 21.9358 38.9469 20.0295ZM37.141 18.194C35.0813 20.0741 32.6944 21.4661 30.2503 22.4938C28.4564 19.2133 26.7401 16.743 25.6945 15.3391C26.5999 15.1462 27.538 15.0428 28.5 15.0428C31.7873 15.0428 34.8014 16.2292 37.141 18.194ZM23.0948 16.1798C23.8843 17.2029 25.7649 19.7645 27.7849 23.4091C22.708 25.0632 17.7818 25.3419 15.4146 25.3678C16.4013 21.2459 19.2877 17.8567 23.0948 16.1798ZM15.0568 27.9483C15.0822 27.9483 15.1067 27.9485 15.1326 27.9485C16.7683 27.9485 19.7651 27.8385 23.2932 27.1952C25.306 26.8281 27.2147 26.3341 29.0057 25.7218C29.4719 26.651 29.9354 27.6312 30.3848 28.6586C27.8771 29.4659 25.7623 30.6277 24.0872 31.7812C21.2781 33.7156 19.3102 35.8618 18.2357 37.1888C16.2461 34.8425 15.0427 31.81 15.0427 28.5C15.0427 28.315 15.0492 28.1316 15.0568 27.9483ZM20.0905 38.9949C21.0156 37.8301 22.8985 35.71 25.6223 33.8496C27.4733 32.5853 29.3884 31.646 31.3599 31.0294C32.5037 33.9943 33.4803 37.2703 34.0625 40.7488C32.3658 41.5224 30.4833 41.9572 28.5 41.9572C25.3199 41.9572 22.3961 40.8461 20.0905 38.9949ZM36.4306 39.3628C35.8305 36.1681 34.9356 33.1643 33.9011 30.419C36.4459 29.9897 39.076 30.0782 41.7773 30.685C41.1947 34.2354 39.2191 37.3215 36.4306 39.3628Z" fill="#CF3080"/>
</g>
<defs>
<clipPath id="clip0_1_336">
<rect width="57" height="57" rx="15" fill="white"/>
</clipPath>
</defs>
</svg>
