<svg width="57" height="57" viewBox="0 0 57 57" fill="none" xmlns="http://www.w3.org/2000/svg">
<g clip-path="url(#clip0_1_335)">
<rect width="57" height="57" rx="15" fill="#F1F3F9"/>
<path fill-rule="evenodd" clip-rule="evenodd" d="M0 28.5C0 15.065 0 8.34746 4.17373 4.17373C8.34746 0 15.065 0 28.5 0C41.935 0 48.6525 0 52.8263 4.17373C57 8.34746 57 15.065 57 28.5C57 41.935 57 48.6525 52.8263 52.8263C48.6525 57 41.935 57 28.5 57C15.065 57 8.34746 57 4.17373 52.8263C0 48.6525 0 41.935 0 28.5ZM24.1797 42.5356V39.949C18.7597 41.1046 17.6084 37.389 17.6084 37.389C17.2475 36.2226 16.4805 35.2255 15.4474 34.5801C13.6762 33.4068 15.5891 33.4246 15.5891 33.4246C16.2013 33.5067 16.7871 33.7269 17.3025 34.0687C17.8178 34.4104 18.2494 34.8649 18.5648 35.3979C19.1145 36.3546 20.0164 37.0564 21.0765 37.3523C22.1365 37.6482 23.27 37.5146 24.2329 36.9801C24.3319 36.0066 24.7711 35.0997 25.4727 34.4201C21.1509 33.9401 16.6164 32.3046 16.6164 24.9623C16.5778 23.047 17.2829 21.1918 18.5825 19.7889C17.9906 18.1446 18.0605 16.3335 18.7774 14.74C18.7774 14.74 20.4246 14.2244 24.0912 16.6956C27.2828 15.8419 30.6415 15.8419 33.8331 16.6956C37.5527 14.2244 39.1468 14.74 39.1468 14.74C39.8637 16.3335 39.9336 18.1446 39.3417 19.7889C40.6716 21.1661 41.4149 23.0089 41.4141 24.9267C41.4141 32.2868 36.8442 33.9046 32.5578 34.3846C33.0271 34.8419 33.3897 35.398 33.6194 36.0128C33.8491 36.6276 33.9402 37.2858 33.8862 37.9401V42.149C32.3724 42.7677 30.7283 43.1334 29.0067 43.1936L28.0465 43.1953C26.7023 43.1533 25.4051 42.9251 24.1797 42.5356Z" fill="#196EE6"/>
</g>
<defs>
<clipPath id="clip0_1_335">
<rect width="57" height="57" rx="15" fill="white"/>
</clipPath>
</defs>
</svg>
