<svg width="57" height="57" viewBox="0 0 57 57" fill="none" xmlns="http://www.w3.org/2000/svg">
<g clip-path="url(#clip0_1_327)">
<rect width="57" height="57" rx="15" fill="#F1F3F9"/>
<path fill-rule="evenodd" clip-rule="evenodd" d="M0 28.5C0 15.065 0 8.34746 4.17373 4.17373C8.34746 0 15.065 0 28.5 0C41.935 0 48.6525 0 52.8263 4.17373C57 8.34746 57 15.065 57 28.5C57 41.935 57 48.6525 52.8263 52.8263C48.6525 57 41.935 57 28.5 57C15.065 57 8.34746 57 4.17373 52.8263C0 48.6525 0 41.935 0 28.5ZM28.5 16.8186C32.3047 16.8186 32.756 16.8328 34.2594 16.9017C38.1211 17.0774 39.9249 18.9098 40.1007 22.743C40.1696 24.2452 40.1826 24.6964 40.1826 28.5012C40.1826 32.3071 40.1684 32.7572 40.1007 34.2594C39.9238 38.0891 38.1247 39.9249 34.2594 40.1007C32.756 40.1696 32.3071 40.1838 28.5 40.1838C24.6953 40.1838 24.244 40.1696 22.7418 40.1007C18.8706 39.9238 17.0763 38.0831 16.9005 34.2582C16.8316 32.756 16.8174 32.3059 16.8174 28.5C16.8174 24.6953 16.8328 24.2452 16.9005 22.7418C17.0774 18.9098 18.8765 17.0763 22.7418 16.9005C24.2452 16.8328 24.6953 16.8186 28.5 16.8186ZM28.5 14.25C24.6299 14.25 24.1454 14.2666 22.6254 14.3355C17.4503 14.573 14.5742 17.4444 14.3367 22.6243C14.2666 24.1454 14.25 24.6299 14.25 28.5C14.25 32.3701 14.2666 32.8558 14.3355 34.3758C14.573 39.5509 17.4444 42.427 22.6243 42.6645C24.1454 42.7334 24.6299 42.75 28.5 42.75C32.3701 42.75 32.8558 42.7334 34.3758 42.6645C39.5461 42.427 42.4294 39.5556 42.6633 34.3758C42.7334 32.8558 42.75 32.3701 42.75 28.5C42.75 24.6299 42.7334 24.1454 42.6645 22.6254C42.4318 17.4551 39.5568 14.5742 34.3769 14.3367C32.8558 14.2666 32.3701 14.25 28.5 14.25ZM28.5 21.1826C24.4589 21.1826 21.1826 24.4589 21.1826 28.5C21.1826 32.5411 24.4589 35.8186 28.5 35.8186C32.5411 35.8186 35.8174 32.5423 35.8174 28.5C35.8174 24.4589 32.5411 21.1826 28.5 21.1826ZM28.5 33.25C25.8768 33.25 23.75 31.1244 23.75 28.5C23.75 25.8768 25.8768 23.75 28.5 23.75C31.1232 23.75 33.25 25.8768 33.25 28.5C33.25 31.1244 31.1232 33.25 28.5 33.25ZM36.1071 19.1841C35.1619 19.1841 34.3959 19.95 34.3959 20.8941C34.3959 21.8381 35.1619 22.6041 36.1071 22.6041C37.0512 22.6041 37.8159 21.8381 37.8159 20.8941C37.8159 19.95 37.0512 19.1841 36.1071 19.1841Z" fill="#AF38C7"/>
</g>
<defs>
<clipPath id="clip0_1_327">
<rect width="57" height="57" rx="15" fill="white"/>
</clipPath>
</defs>
</svg>
