<svg width="57" height="57" viewBox="0 0 57 57" fill="none" xmlns="http://www.w3.org/2000/svg">
<g clip-path="url(#clip0_1_330)">
<rect width="57" height="57" rx="15" fill="#F1F3F9"/>
<path fill-rule="evenodd" clip-rule="evenodd" d="M0 28.5C0 15.065 0 8.34746 4.17373 4.17372C8.34746 0 15.065 0 28.5 0C41.935 0 48.6525 0 52.8263 4.17372C57 8.34746 57 15.065 57 28.5C57 41.935 57 48.6525 52.8263 52.8263C48.6525 57 41.935 57 28.5 57C15.065 57 8.34746 57 4.17373 52.8263C0 48.6525 0 41.935 0 28.5Z" fill="#2F9BA7"/>
<path d="M16.7582 21.3094H21.9458V41H16.7582V21.3094ZM16 15.7567C16 14.9953 16.2793 14.3521 16.838 13.827C17.4233 13.2757 18.2214 13 19.2323 13C20.2432 13 21.0546 13.2757 21.6664 13.827C22.3049 14.3521 22.6242 14.9953 22.6242 15.7567C22.6242 16.518 22.3049 17.1613 21.6664 17.6864C21.0546 18.1852 20.2432 18.4346 19.2323 18.4346C18.2214 18.4346 17.4233 18.1852 16.838 17.6864C16.2793 17.1613 16 16.518 16 15.7567Z" fill="#F1F3F9"/>
<path d="M36.8124 41V29.8158C36.8124 28.2143 36.573 27.0591 36.0941 26.3502C35.6419 25.6414 34.8571 25.2869 33.7398 25.2869C32.7554 25.2869 31.9175 25.5757 31.2258 26.1533C30.5607 26.7046 30.0818 27.4004 29.7892 28.2405V41H24.6016V21.3094H28.7118L29.3104 23.9086H29.47C30.0818 23.0684 30.8932 22.3333 31.9041 21.7032C32.9151 21.0731 34.2186 20.7581 35.8148 20.7581C36.7991 20.7581 37.677 20.8894 38.4485 21.1519C39.22 21.4144 39.8718 21.8476 40.4038 22.4515C40.9359 23.0553 41.3349 23.8823 41.601 24.9325C41.867 25.9564 42 27.2297 42 28.7525V41H36.8124Z" fill="#F1F3F9"/>
</g>
<defs>
<clipPath id="clip0_1_330">
<rect width="57" height="57" rx="15" fill="white"/>
</clipPath>
</defs>
</svg>
